<?xml version="1.0" encoding="UTF-8"?>
<svg xmlns="http://www.w3.org/2000/svg" xmlns:xlink="http://www.w3.org/1999/xlink" width="400pt" height="400pt" viewBox="0 0 400 400" version="1.1">
<g id="surface1">
<path style=" stroke:none;fill-rule:nonzero;fill:rgb(100%,100%,100%);fill-opacity:0;" d="M 400 200 C 400 310.457031 310.457031 400 200 400 C 89.542969 400 0 310.457031 0 200 C 0 89.542969 89.542969 0 200 0 C 310.457031 0 400 89.542969 400 200 Z M 400 200 "/>
<path style=" stroke:none;fill-rule:nonzero;fill:rgb(23.137255%,9.019608%,36.078431%);fill-opacity:1;" d="M 370 209.804688 C 370 151.757812 338.671875 101.078125 290.757812 71.59375 L 291.679688 111.214844 C 320.242188 135.171875 337.75 171.105469 337.75 209.804688 C 337.75 227.3125 334.066406 244.816406 327.617188 260.480469 C 307.34375 241.132812 292.601562 218.097656 283.386719 191.375 C 272.332031 159.128906 269.566406 123.191406 269.566406 78.964844 L 269.566406 60.535156 C 259.429688 55.929688 249.296875 53.164062 239.160156 50.402344 L 239.160156 78.964844 C 240.082031 230.074219 265.882812 291.808594 305.503906 338.800781 C 344.199219 308.394531 370 261.402344 370 209.804688 Z M 370 209.804688 "/>
<path style=" stroke:none;fill-rule:nonzero;fill:rgb(23.137255%,9.019608%,36.078431%);fill-opacity:1;" d="M 160.839844 78.964844 L 160.839844 50.402344 C 150.703125 53.164062 139.648438 55.929688 130.433594 60.535156 L 130.433594 78.964844 C 130.433594 122.269531 127.671875 158.203125 116.613281 191.375 C 107.398438 218.097656 92.65625 241.132812 72.386719 260.480469 C 65.933594 244.816406 62.25 228.234375 62.25 209.804688 C 62.25 170.183594 79.757812 135.171875 108.320312 111.214844 L 109.242188 71.59375 C 61.328125 101.078125 30 151.757812 30 209.804688 C 30 262.324219 55.800781 308.394531 95.421875 338.800781 C 133.199219 291.808594 159.917969 229.152344 160.839844 78.964844 Z M 160.839844 78.964844 "/>
<path style=" stroke:none;fill-rule:nonzero;fill:rgb(23.137255%,9.019608%,36.078431%);fill-opacity:1;" d="M 215.203125 20.921875 C 209.675781 20.921875 205.066406 20 199.539062 20 C 194.933594 20 189.402344 20 183.875 20.921875 L 183.875 55.011719 C 183.875 203.359375 178.347656 267.859375 156.234375 368.292969 C 184.796875 375.664062 214.28125 375.664062 242.84375 368.292969 C 220.730469 268.78125 215.203125 204.28125 215.203125 55.011719 Z M 215.203125 20.921875 "/>
</g>
</svg>
