<svg class="HeaderLogo___mobileLogo__2Cpf0" width="120" height="32" viewBox="0 0 120 32" fill="none" xmlns="http://www.w3.org/2000/svg"><g clip-path="url(#clip0_17181_74589)"><path d="M50.5109 11.9648C48.9346 11.9648 47.7556 12.5481 47.1724 13.5129H47.0463V12.2612H44.165V25.519H47.0463V21.3162H47.1724C47.7525 22.281 48.9346 22.8643 50.5109 22.8643C53.4678 22.8643 55.8132 20.4492 55.8132 17.413C55.8132 14.3799 53.4678 11.9648 50.5109 11.9648ZM49.9277 20.2411C48.3199 20.2411 47.0463 18.9894 47.0463 17.413C47.0463 15.8208 48.3199 14.5849 49.9277 14.5849C51.5827 14.5849 52.8405 15.8208 52.8405 17.413C52.8405 19.0052 51.5669 20.2411 49.9277 20.2411Z" fill="white"></path><path d="M114.956 12.7432C113.308 12.7432 112.018 13.3675 111.233 14.4521H111.104C111.318 12.491 112.428 11.5388 114.818 11.1983L119.001 10.593V7.94141L114.54 8.57513C110.42 9.14895 108.443 11.3307 108.443 15.2624C108.443 18.1062 108.626 19.0048 109.134 20.0799C109.931 21.8045 111.908 22.8639 114.297 22.8639C117.516 22.8639 120 20.5812 120 17.5923C119.997 14.7169 117.945 12.7432 114.956 12.7432ZM114.266 20.2281C112.627 20.2281 111.416 19.1088 111.416 17.5923C111.416 16.06 112.611 14.9408 114.266 14.9408C115.889 14.9408 117.087 16.06 117.087 17.5923C117.087 19.1088 115.874 20.2281 114.266 20.2281Z" fill="white"></path><path d="M41.1443 9.14768L37.9004 15.6867L33.4807 9.14768H30.0352L36.4503 18.6126L36.2738 18.972C35.9964 19.5458 35.6307 19.8548 34.7859 19.8548H32.5161V22.5789H35.1074C37.084 22.5789 37.8815 22.0776 38.7075 20.4286L44.3787 9.14453H41.1443V9.14768Z" fill="white"></path><path d="M72.4578 12.2734L71.966 18.6801C71.8903 19.6827 71.553 20.0484 70.7555 20.0484H70.0493V22.6558H71.7674C73.6998 22.6558 74.5573 21.773 74.696 19.9317L75.0743 14.9534H78.6176V22.5675H81.5304V12.2734H72.4578Z" fill="white"></path><path d="M89.04 14.6152C90.219 14.6152 91.1553 15.2773 91.5998 16.1633L94.1753 15.1922C93.4566 13.2342 91.4169 11.9668 88.9801 11.9668C85.7142 11.9668 83.249 14.322 83.249 17.4181C83.249 20.5111 85.7174 22.8694 88.9801 22.8694C91.4169 22.8694 93.4566 21.6019 94.1753 19.644L91.5998 18.6729C91.1553 19.5557 90.219 20.221 89.04 20.221C87.4008 20.221 86.2186 19.0576 86.2186 17.4212C86.2186 15.7786 87.4008 14.6152 89.04 14.6152Z" fill="white"></path><path d="M103.274 12.2578L98.8007 18.8032V12.2578H95.9194V22.5677H99.1065L103.551 16.0696V22.5677H106.433V12.2578H103.274Z" fill="white"></path><path d="M65.7097 13.509H65.5837C65.0036 12.5442 63.8215 11.9609 62.2452 11.9609C59.2883 11.9609 56.9429 14.376 56.9429 17.4122C56.9429 20.4453 59.2883 22.8635 62.2452 22.8635C63.8215 22.8635 65.0005 22.2803 65.5837 21.3155H65.7097V22.5672H68.5911V12.2573H65.7097V13.509ZM62.8316 20.2403C61.1923 20.2403 59.9188 19.0044 59.9188 17.4122C59.9188 15.82 61.1766 14.5841 62.8316 14.5841C64.4393 14.5841 65.7129 15.82 65.7129 17.4122C65.7098 18.9887 64.4393 20.2403 62.8316 20.2403Z" fill="white"></path><path d="M21.9136 16.1633C21.9136 12.4303 19.8803 9.14814 16.8256 7.2785L16.8666 9.8134C18.6824 11.3741 19.833 13.6441 19.833 16.1633C19.833 17.3141 19.5871 18.4113 19.1552 19.4139C17.8407 18.1653 16.9044 16.6961 16.3212 14.962C15.6182 12.8622 15.4543 10.5638 15.4291 7.75458L15.4322 6.54703C14.8017 6.27589 14.1429 6.06149 13.4683 5.91016L13.4714 7.75143C13.5376 17.4496 15.2179 21.4475 17.7177 24.4521L17.7209 24.449L17.7177 24.4521C20.2743 22.5226 21.9136 19.5274 21.9136 16.1633C21.9136 16.1664 21.9136 16.1664 21.9136 16.1633Z" fill="white"></path><path d="M8.44533 7.75338L8.44848 5.91211C7.77387 6.06345 7.11501 6.27784 6.48453 6.54899L6.48768 7.75653C6.45931 10.5626 6.29853 12.8642 5.59554 14.964C5.0155 16.698 4.07608 18.1641 2.76152 19.4158C2.32964 18.4132 2.08375 17.316 2.08375 16.1652C2.08375 13.6429 3.23123 11.376 5.05018 9.81535L5.09116 7.28045C2.03331 9.14694 0 12.4291 0 16.1621V16.1652C0 19.5293 1.64241 22.5245 4.19587 24.4541L4.19272 24.4509L4.19587 24.4541C6.70204 21.4526 8.37913 17.4516 8.44533 7.75338Z" fill="white"></path><path d="M11.9405 4.04099C11.5843 4.01261 11.2628 4 10.9601 4C10.6575 4 10.3359 4.01261 9.97657 4.04099V6.21961C9.97657 15.7665 9.60773 19.9156 8.17969 26.3601C9.98918 26.8173 11.9122 26.8173 13.7248 26.3632C12.3062 19.9661 11.9405 15.8169 11.9405 6.21961V4.04099V4.04099Z" fill="white"></path></g><defs><clipPath id="clip0_17181_74589"><rect width="120" height="32" fill="white"></rect></clipPath></defs></svg>